<svg xmlns="http://www.w3.org/2000/svg" width="25.284" height="31.782" viewBox="0 0 25.284 31.782">
  <g id="Groupe_33" data-name="Groupe 33" transform="translate(133.264 -714)">
    <path id="Tracé_64" data-name="Tracé 64" d="M21.858,57.278a6.652,6.652,0,0,1,3.354-6.051,7.341,7.341,0,0,0-5.684-3.153,8.154,8.154,0,0,0-3.416.637,16.584,16.584,0,0,1-2.516.827,7.587,7.587,0,0,1-2.269-.7,7.671,7.671,0,0,0-2.857-.7,7.079,7.079,0,0,0-3.7,1.1A7.866,7.866,0,0,0,2.04,52.151a10.883,10.883,0,0,0-1.3,5.477A17.914,17.914,0,0,0,1.7,63.36,19.344,19.344,0,0,0,4,68.168a15.341,15.341,0,0,0,2.174,2.74A3.651,3.651,0,0,0,8.9,72.18a6.937,6.937,0,0,0,2.36-.67,6.733,6.733,0,0,1,2.734-.6,6.525,6.525,0,0,1,2.64.6,6.775,6.775,0,0,0,2.485.638A4.107,4.107,0,0,0,21.8,70.907a7.546,7.546,0,0,0,.946-1.052q.591-.779,1.134-1.592.453-.7.854-1.433a14.409,14.409,0,0,0,.761-1.624q.154-.35.279-.716c.082-.244.165-.493.248-.748a7.065,7.065,0,0,1-4.161-6.464Z" transform="translate(-134 673.599)" fill="#7000ff"/>
    <path id="Tracé_65" data-name="Tracé 65" d="M84.324,5.1A7.026,7.026,0,0,0,85.971.637V.319A1.681,1.681,0,0,0,85.94,0,6.073,6.073,0,0,0,83.5.732,6.765,6.765,0,0,0,81.373,2.42a6.6,6.6,0,0,0-1.677,4.3v.3a1.618,1.618,0,0,0,.031.3,5.14,5.14,0,0,0,4.6-2.229Z" transform="translate(-200.38 714)" fill="#7000ff"/>
  </g>
</svg>
