<?xml version="1.0" encoding="utf-8"?>
<!-- Generator: Adobe Illustrator 25.2.1, SVG Export Plug-In . SVG Version: 6.00 Build 0)  -->
<svg version="1.1" id="Calque_1" xmlns="http://www.w3.org/2000/svg" xmlns:xlink="http://www.w3.org/1999/xlink" x="0px" y="0px"
	 viewBox="0 0 749.8 749.8" style="enable-background:new 0 0 749.8 749.8;" xml:space="preserve">
<style type="text/css">
	.st0{fill:#1ED760;}
</style>
<path class="st0" d="M374.9,0C167.9,0,0,167.9,0,374.9C0,582,167.9,749.8,374.9,749.8c207.1,0,374.9-167.8,374.9-374.9
	C749.8,167.9,582,0,374.9,0L374.9,0L374.9,0z M546.8,540.7c-6.7,11-21.1,14.5-32.1,7.8c0,0,0,0,0,0c-88-53.8-198.8-65.9-329.3-36.1
	c-12.6,2.9-25.1-5-28-17.6c-2.9-12.6,5-25.1,17.5-28c0,0,0,0,0.1,0c142.8-32.6,265.3-18.6,364.1,41.8
	C550.1,515.3,553.6,529.7,546.8,540.7z M592.7,438.6c-8.5,13.8-26.5,18.1-40.2,9.6c-100.8-61.9-254.4-79.9-373.6-43.7
	c-15.5,4.7-31.8-4-36.5-19.5c-4.7-15.4,4.1-31.8,19.5-36.5c136.2-41.3,305.4-21.3,421.1,49.8C596.8,406.9,601.2,424.9,592.7,438.6
	L592.7,438.6z M596.7,332.3C475.8,260.6,276.5,254,161.1,289c-18.5,5.6-38.1-4.8-43.7-23.4c-5.6-18.5,4.8-38.1,23.4-43.7
	c132.4-40.2,352.6-32.4,491.7,50.1c16.6,9.8,22.2,31.3,12.3,48c0,0,0,0.1,0,0.1C634.9,336.7,613.3,342.2,596.7,332.3L596.7,332.3z"
	/>
</svg>
