<?xml version="1.0" encoding="utf-8"?>
<!-- Generator: Adobe Illustrator 25.2.1, SVG Export Plug-In . SVG Version: 6.00 Build 0)  -->
<svg version="1.1" id="Calque_1" xmlns="http://www.w3.org/2000/svg" xmlns:xlink="http://www.w3.org/1999/xlink" x="0px" y="0px"
	 viewBox="0 0 3406.1 443.6" style="enable-background:new 0 0 3406.1 443.6;" xml:space="preserve">
<style type="text/css">
	.st0{stroke:#000000;stroke-width:0.1617;stroke-miterlimit:6.8798;}
</style>
<g>
	<path class="st0" d="M110.2,0.1h1.4c10.5,12,22.4,22.7,33.5,34.2l76,76v1.4c-36.8,36.6-73.4,73.6-110.2,110.2
		c-37-36.8-73.8-73.8-110.8-110.6c1.9-3.6,5.5-6,8.3-8.9C42.2,68.2,76.6,34.5,110.2,0.1z M332,0.1h1.4c1,1.5,2.1,2.9,3.4,4.3
		c35.6,35.3,70.7,71,106.6,106.1c-0.9,2.1-2.8,3.4-4.3,5c-35.6,35.4-71,71-106.6,106.5c-37.2-36.6-73.6-74-110.9-110.4
		C257.7,73.9,295.8,37.6,332,0.1z M553.9,0.1h1.4c6.9,8.3,15,15.3,22.4,23c27.9,27.9,55.6,55.6,83.4,83.4c1.4,1.5,3.6,2.9,4.1,5.2
		c-37.3,36.3-73.4,74-110.9,110.2L448.5,116.2c-1.7-1.9-4-3.3-4.8-5.7c18.7-18.2,37-37,55.6-55.4C517.5,36.7,536,18.8,553.9,0.1z
		 M223.2,331.2c36.3-36.3,72.8-72.6,109-109l1.5,0.7c36.5,36.6,72.9,73.3,109.7,109.6c-1.2,2.8-3.8,4.3-5.7,6.5
		c-26.5,26.3-53,53-79.5,79.3c-8.6,8.3-16.9,17.5-25.6,25.3c-12.6-11.4-24.1-24.1-36.3-35.8c-24.8-24.8-49.4-49.5-74.3-74.1
		C222.5,332.9,222.8,331.9,223.2,331.2L223.2,331.2z M907,17.9h330.9c0.2,26.5,0.2,53,0,79.3h-119.2v313c-0.2,5.2,0.3,10.3-0.7,15.5
		h-92c0.3-109.6,0.2-218.9,0.2-328.5H907V17.9z M1513.9,17.9c31,0,61.9,0,92.9,0.2c-0.2,135.9,0.3,271.8-0.3,407.6h-92.4
		c-0.5-36.1-0.2-72.2-0.3-108.4C1513.9,217.6,1513.8,117.8,1513.9,17.9z M3151.5,17.9c31,0,61.9,0,92.9,0.2v325.8
		c53.8,0.3,107.8,0.2,161.7,0.2v81.7h-254.4C3151.1,289.8,3151.7,153.9,3151.5,17.9z M2278.4,154.6c-9.3-32-27.3-61.1-52.5-82.9
		c-33.2-29.4-76.5-45.4-120.1-51.1c-24.6-3.6-49.5-2.6-74.3-2.8h-109.9c-2.1,0-4.3,0.2-6.4,0.5c0.5,134.7,0,269.3,0.3,404
		c-0.2,0.9-0.3,2.4-0.5,3.3h158.9c14.3-2.6,28.9-2.4,43-5.5c48.2-8.8,94.4-32.7,125.9-70.7c23.2-27.5,37.5-62.1,42.1-97.7
		C2289.3,219.3,2287.6,185.9,2278.4,154.6L2278.4,154.6z M2173.7,290c-11.5,18.4-28.6,33-48.3,42c-17.9,8.3-37.7,12-57.3,12.6
		c-20.6,0.2-41.3,0-61.9,0.2c-1-22.9-0.2-45.8-0.5-68.6c0-59.7,0-119.2,0.2-178.9h63.8c32,0.7,64.5,11.7,87.7,34.4
		c20.8,20.1,32.5,48.5,34.4,77.2C2193.6,236.8,2188.5,265.9,2173.7,290z M2865.3,329.7c-38.9-94.4-77.6-189-116.8-283.3
		c-3.6-9.5-7.4-19.1-11.7-28.2c-32-0.5-64-0.5-96,0c-54.7,131.6-109.4,263.2-164.1,394.6c-1.7,4.3-3.8,8.4-4.6,12.9h98.9
		c9.8-27.2,20.3-54,30.1-81.2c56.1-0.9,112.3-0.2,168.6-0.3c2.9-0.9,3.8,2.2,4.5,4.3c9.5,25.8,19.1,51.4,28.4,77.2h102
		C2892.1,393.3,2878.4,361.7,2865.3,329.7z M2627.2,272.1c-0.5-3.6,1.7-6.7,2.8-10c18.7-49,38-98,56.6-147.1c0.3-0.2,1-0.3,1.4-0.3
		c19.4,51.6,39.2,103,58.8,154.6c0,0.7,0.2,2.1,0.2,2.8C2707.1,271.7,2667.1,271.7,2627.2,272.1z"/>
</g>
</svg>
