<?xml version="1.0" encoding="utf-8"?>
<!-- Generator: Adobe Illustrator 25.2.1, SVG Export Plug-In . SVG Version: 6.00 Build 0)  -->
<svg version="1.1" id="Calque_1" xmlns="http://www.w3.org/2000/svg" xmlns:xlink="http://www.w3.org/1999/xlink" x="0px" y="0px"
	 viewBox="0 0 43.8 43.8" style="enable-background:new 0 0 43.8 43.8;" xml:space="preserve">
<style type="text/css">
	.st0{fill:#7000FF;}
</style>
<g>
	<path class="st0" d="M15.4,31.1c-0.6,0-1.3-0.2-1.8-0.7c-1-1-1-2.6,0-3.6l13.2-13.2c1-1,2.6-1,3.6,0c1,1,1,2.6,0,3.6L17.2,30.3
		C16.7,30.8,16,31.1,15.4,31.1z"/>
</g>
<g>
	<g>
		<path class="st0" d="M11.6,43.8c-3,0-6-1.1-8.2-3.4c-4.5-4.5-4.5-11.9,0-16.4l6.2-6.2c1-1,2.6-1,3.6,0c1,1,1,2.6,0,3.6L7,27.5
			c-2.6,2.6-2.6,6.8,0,9.3c2.6,2.6,6.8,2.6,9.3,0l6.2-6.2c1-1,2.6-1,3.6,0c1,1,1,2.6,0,3.6l-6.2,6.2C17.6,42.7,14.6,43.8,11.6,43.8z
			"/>
	</g>
	<g>
		<path class="st0" d="M32.4,26.8c-0.6,0-1.3-0.2-1.8-0.7c-1-1-1-2.6,0-3.6l6.2-6.2c2.6-2.6,2.6-6.8,0-9.3c-2.6-2.6-6.8-2.6-9.3,0
			l-6.2,6.2c-1,1-2.6,1-3.6,0c-1-1-1-2.6,0-3.6L24,3.4c4.5-4.5,11.9-4.5,16.4,0c4.5,4.5,4.5,11.9,0,16.4L34.2,26
			C33.7,26.5,33.1,26.8,32.4,26.8z"/>
	</g>
</g>
</svg>
