<svg xmlns="http://www.w3.org/2000/svg" width="30.838" height="20.129" viewBox="0 0 30.838 20.129">
  <g id="Groupe_34" data-name="Groupe 34" transform="translate(-0.98 -6.447)">
    <path id="Tracé_41" data-name="Tracé 41" d="M168.163,6.447h6.668v3.9h-6.668Z" transform="translate(-143.013)" fill="#7000ff" fill-rule="evenodd"/>
    <path id="Tracé_42" data-name="Tracé 42" d="M168.163,43.862h6.668v3.9h-6.668Z" transform="translate(-143.013 -32.005)" fill="#7000ff" fill-rule="evenodd"/>
    <path id="Tracé_43" data-name="Tracé 43" d="M168.163,81.277h6.668v3.9h-6.668Z" transform="translate(-143.013 -64.011)" fill="#7000ff" fill-rule="evenodd"/>
    <path id="Tracé_44" data-name="Tracé 44" d="M.98,118.691H7.648v3.9H.98Z" transform="translate(0 -96.016)" fill="#7000ff" fill-rule="evenodd"/>
    <path id="Tracé_45" data-name="Tracé 45" d="M56.672,118.691H63.34v3.9H56.672Z" transform="translate(-47.64 -96.016)" fill="#7000ff" fill-rule="evenodd"/>
    <path id="Tracé_46" data-name="Tracé 46" d="M112.471,118.691h6.668v3.9h-6.668Z" transform="translate(-95.372 -96.016)" fill="#7000ff" fill-rule="evenodd"/>
    <path id="Tracé_47" data-name="Tracé 47" d="M168.163,118.691h6.668v3.9h-6.668Z" transform="translate(-143.013 -96.016)" fill="#7000ff" fill-rule="evenodd"/>
    <path id="Tracé_48" data-name="Tracé 48" d="M112.471,81.277h6.668v3.9h-6.668Z" transform="translate(-95.372 -64.011)" fill="#7000ff" fill-rule="evenodd"/>
    <path id="Tracé_49" data-name="Tracé 49" d="M56.672,81.277H63.34v3.9H56.672Z" transform="translate(-47.64 -64.011)" fill="#7000ff" fill-rule="evenodd"/>
    <path id="Tracé_50" data-name="Tracé 50" d="M56.672,43.862H63.34v3.9H56.672Z" transform="translate(-47.64 -32.005)" fill="#7000ff" fill-rule="evenodd"/>
  </g>
</svg>
