<?xml version="1.0" encoding="utf-8"?>
<!-- Generator: Adobe Illustrator 25.2.1, SVG Export Plug-In . SVG Version: 6.00 Build 0)  -->
<svg version="1.1" id="Calque_1" xmlns="http://www.w3.org/2000/svg" xmlns:xlink="http://www.w3.org/1999/xlink" x="0px" y="0px"
	 viewBox="0 0 48 48" style="enable-background:new 0 0 48 48;" xml:space="preserve">
<style type="text/css">
	.st0{fill:#FFFFFF;}
</style>
<path class="st0" d="M14.5,0C6.5,0,0,6.5,0,14.5v18.9C0,41.5,6.5,48,14.5,48h18.9c8,0,14.5-6.5,14.5-14.5V14.5C48,6.5,41.5,0,33.5,0
	H14.5z M14.5,3.8h18.9c6,0,10.7,4.8,10.7,10.7v18.9c0,6-4.8,10.7-10.7,10.7H14.5c-6,0-10.7-4.8-10.7-10.7V14.5
	C3.8,8.6,8.6,3.8,14.5,3.8z M36.6,8.8c-1.4,0-2.5,1.1-2.5,2.5s1.1,2.5,2.5,2.5c1.4,0,2.5-1.1,2.5-2.5S38,8.8,36.6,8.8z M24,11.4
	c-7,0-12.6,5.7-12.6,12.6S17,36.6,24,36.6S36.6,31,36.6,24S31,11.4,24,11.4z M24,15.2c4.9,0,8.8,3.9,8.8,8.8s-3.9,8.8-8.8,8.8
	s-8.8-3.9-8.8-8.8S19.1,15.2,24,15.2z"/>
</svg>
