<svg xmlns="http://www.w3.org/2000/svg" width="26.565" height="26.549" viewBox="0 0 26.565 26.549">
  <g id="instagram-logo" transform="translate(-0.1 -0.1)">
    <path id="Tracé_67" data-name="Tracé 67" d="M20.613.1H6.152A6.044,6.044,0,0,0,.1,6.152V20.6a6.054,6.054,0,0,0,6.052,6.052H20.6A6.054,6.054,0,0,0,26.649,20.6l.016-14.446A6.044,6.044,0,0,0,20.613.1ZM13.383,21.682a8.308,8.308,0,1,1,8.331-8.315A8.319,8.319,0,0,1,13.383,21.682ZM23.521,6.23a2.172,2.172,0,0,1-1.493.613,2.2,2.2,0,0,1-1.493-.613,2.232,2.232,0,0,1-.613-1.493,2.066,2.066,0,0,1,.613-1.493,2.232,2.232,0,0,1,1.493-.613,2.066,2.066,0,0,1,1.493.613,2.172,2.172,0,0,1,.613,1.493A2.1,2.1,0,0,1,23.521,6.23Z" transform="translate(0 0)" fill="#FFFFFF"/>
    <path id="Tracé_68" data-name="Tracé 68" d="M60.709,55.354A5.455,5.455,0,1,1,55.254,49.9,5.444,5.444,0,0,1,60.709,55.354Z" transform="translate(-41.888 -41.972)" fill="#FFFFFF"/>
  </g>
</svg>
