<svg xmlns="http://www.w3.org/2000/svg" width="26.549" height="26.549" viewBox="0 0 26.549 26.549">
  <path id="Tracé_66" data-name="Tracé 66" d="M14.275.8h0A13.275,13.275,0,1,0,27.549,14.075,13.278,13.278,0,0,0,14.275.8Zm6.1,19.155h0a.826.826,0,0,1-1.135.277c-3.115-1.907-7.045-2.343-11.674-1.281A.828.828,0,0,1,7.2,17.335c5.065-1.15,9.4-.655,12.9,1.485A.826.826,0,0,1,20.373,19.955ZM22,16.331h0a1.037,1.037,0,0,1-1.426.335A17.409,17.409,0,0,0,7.346,15.123a1.036,1.036,0,1,1-.611-1.98A19.357,19.357,0,0,1,21.654,14.9,1.044,1.044,0,0,1,22,16.331Zm1.834-4.192a1.237,1.237,0,0,1-1.7.437h0C17.855,10.028,10.8,9.8,6.706,11.033A1.239,1.239,0,1,1,5.993,8.66C10.679,7.234,18.481,7.51,23.4,10.436A1.237,1.237,0,0,1,23.838,12.139Z" transform="translate(-1 -0.8)" fill="#FFFFFF"/>
</svg>
