<svg xmlns="http://www.w3.org/2000/svg" width="32.668" height="26.549" viewBox="0 0 32.668 26.549">
  <g id="twitter-logo" transform="translate(0 -48)">
    <g id="Groupe_37" data-name="Groupe 37" transform="translate(0 48)">
      <g id="Groupe_36" data-name="Groupe 36">
        <path id="Tracé_69" data-name="Tracé 69" d="M32.668,51.139a13.842,13.842,0,0,1-3.86,1.059,6.651,6.651,0,0,0,2.948-3.7,13.431,13.431,0,0,1-4.249,1.621A6.694,6.694,0,0,0,15.926,54.7a6.986,6.986,0,0,0,.153,1.525A18.975,18.975,0,0,1,2.271,49.219a6.7,6.7,0,0,0,2.055,8.952A6.589,6.589,0,0,1,1.3,57.347v.077A6.724,6.724,0,0,0,6.668,64a6.779,6.779,0,0,1-1.755.223,5.992,5.992,0,0,1-1.27-.115A6.759,6.759,0,0,0,9.9,68.775a13.475,13.475,0,0,1-8.3,2.858A13.181,13.181,0,0,1,0,71.544a18.845,18.845,0,0,0,10.273,3.005c12.327,0,19.065-10.209,19.065-19.059,0-.294-.013-.581-.026-.868A13.411,13.411,0,0,0,32.668,51.139Z" transform="translate(0 -48)" fill="#FFFFFF"/>
      </g>
    </g>
  </g>
</svg>
