<?xml version="1.0" encoding="utf-8"?>
<!-- Generator: Adobe Illustrator 25.2.1, SVG Export Plug-In . SVG Version: 6.00 Build 0)  -->
<svg version="1.1" id="Calque_1" xmlns="http://www.w3.org/2000/svg" xmlns:xlink="http://www.w3.org/1999/xlink" x="0px" y="0px"
	 viewBox="0 0 190.2 190.2" style="enable-background:new 0 0 190.2 190.2;" xml:space="preserve">
<style type="text/css">
	.st0{fill:#FFFFFF;}
</style>
<path id="Path_51" class="st0" d="M95.1,0C42.6,0,0,42.6,0,95.1s42.6,95.1,95.1,95.1c52.5,0,95.1-42.6,95.1-95.1v0l0,0
	C190.2,42.6,147.6,0,95.1,0C95.1,0,95.1,0,95.1,0L95.1,0z M95.1,171.2c-42,0-76.1-34.1-76.1-76.1S53.1,19,95.1,19
	s76.1,34.1,76.1,76.1c0,0,0,0,0,0l0,0C171.2,137.1,137.1,171.2,95.1,171.2C95.1,171.2,95.1,171.2,95.1,171.2L95.1,171.2L95.1,171.2z
	 M133.1,85.6h-28.5V57c0-5.2-4.2-9.5-9.5-9.5h0c-5.3,0-9.5,4.2-9.5,9.5c0,0,0,0,0,0v28.5H57.1c-5.3,0-9.5,4.3-9.5,9.5
	c0,5.3,4.3,9.5,9.5,9.5c0,0,0,0,0,0h28.5v28.5c0,5.3,4.3,9.5,9.5,9.5c5.2,0,9.5-4.2,9.5-9.5v-28.5h28.5c5.3,0,9.5-4.3,9.5-9.5
	C142.6,89.8,138.4,85.6,133.1,85.6L133.1,85.6z"/>
</svg>
