<?xml version="1.0" encoding="utf-8"?>
<!-- Generator: Adobe Illustrator 25.3.1, SVG Export Plug-In . SVG Version: 6.00 Build 0)  -->
<svg version="1.1" id="Calque_1" xmlns="http://www.w3.org/2000/svg" xmlns:xlink="http://www.w3.org/1999/xlink" x="0px" y="0px"
	 viewBox="0 0 213.9 213.9" style="enable-background:new 0 0 213.9 213.9;" xml:space="preserve">
<style type="text/css">
	.st0{fill:#FFFFFF;}
</style>
<g>
	<path class="st0" d="M106.9,129.7l79.6,79.6c3,3,7,4.7,11.3,4.7s8.2-1.6,11.4-4.7c3-3,4.6-7,4.6-11.3s-1.6-8.2-4.7-11.4L129.7,107
		l79.6-79.6c3-3,4.7-7,4.7-11.3s-1.6-8.2-4.7-11.4c-6.2-6.2-16.4-6.2-22.6,0L107,84.3L27.3,4.7C21.1-1.6,10.9-1.5,4.6,4.8
		C1.7,7.7,0,11.8,0,16s1.7,8.2,4.7,11.4l79.5,79.5L4.7,186.6c-3,3-4.7,7-4.7,11.3s1.6,8.2,4.7,11.4c3,3,7,4.6,11.3,4.6
		s8.2-1.6,11.4-4.7L106.9,129.7z"/>
</g>
</svg>
