<?xml version="1.0" encoding="utf-8"?>
<!-- Generator: Adobe Illustrator 24.3.0, SVG Export Plug-In . SVG Version: 6.00 Build 0)  -->
<svg version="1.1" id="Layer_1" xmlns="http://www.w3.org/2000/svg" xmlns:xlink="http://www.w3.org/1999/xlink" x="0px" y="0px"
	 viewBox="0 0 415.5 415.4" style="enable-background:new 0 0 415.5 415.4;" xml:space="preserve">
<style type="text/css">
	.st0{fill:#FFFFFF;}
	.st1{display:none;}
	.st2{display:inline;}
	.st3{fill:url(#SVGID_1_);}
	.st4{fill:#7000FF;}
	.st5{opacity:0.1;}
	.st6{filter:url(#Adobe_OpacityMaskFilter);}
	.st7{opacity:0.5;mask:url(#SVGID_2_);}
	.st8{clip-path:url(#SVGID_4_);}
	.st9{opacity:0.1;clip-path:url(#SVGID_6_);fill:#FFFFFF;enable-background:new    ;}
	.st10{opacity:8.000000e-02;clip-path:url(#SVGID_8_);fill:#FFFFFF;enable-background:new    ;}
	.st11{opacity:8.000000e-02;clip-path:url(#SVGID_10_);fill:#FFFFFF;enable-background:new    ;}
</style>
<g>
	
		<image style="overflow:visible;opacity:0.25;enable-background:new    ;" width="402" height="402" xlink:href="../../../../../../SRC_Elements/B5922F89D389E719.png"  transform="matrix(1 0 0 1 10 11.4)">
	</image>
	<g>
		<path class="st0" d="M316.1,382.7L316.1,382.7c-71.6,14-145.2,14-216.8,0l0,0c-33.8-6.6-60.2-33-66.8-66.8l0,0
			c-14-71.6-14-145.2,0-216.8l0,0c6.6-33.8,33-60.2,66.8-66.8l0,0c71.6-14,145.2-14,216.8,0l0,0c33.8,6.6,60.2,33,66.8,66.8l0,0
			c14,71.6,14,145.2,0,216.8l0,0C376.3,349.7,349.9,376.1,316.1,382.7z"/>
	</g>
</g>
<g class="st1">
	
		<image style="display:inline;overflow:visible;opacity:0.25;enable-background:new    ;" width="284" height="284" xlink:href="../../../../../../SRC_Elements/B5922F89D389E718.png"  transform="matrix(1 0 0 1 69 70.4)">
	</image>
	<g class="st2">
		
			<radialGradient id="SVGID_1_" cx="207.7008" cy="-371.4984" r="126.5479" gradientTransform="matrix(1 0 0 -1 0 -164)" gradientUnits="userSpaceOnUse">
			<stop  offset="0.4037" style="stop-color:#5400D8"/>
			<stop  offset="0.8427" style="stop-color:#7000FF"/>
		</radialGradient>
		<path class="st3" d="M290.1,303.5c-0.4,0.4-0.9,0.8-1.5,1.2c-0.2,0.1-0.4,0.3-0.5,0.4c-0.3,0.3-0.5,0.4-0.8,0.6
			c-0.5,0.4-1.1,0.8-1.6,1.3c-0.8,0.6-1.6,1.2-2.4,1.8c0,0,0,0-0.1,0.1c-49.4,36.9-118.2,32.7-162.9-9.9c-1.5-1.4-2.8-2.8-4.2-4.2
			c-42.6-44.6-46.8-113.5-9.9-162.9c0,0,0,0,0.1-0.1c0.6-0.8,1.2-1.6,1.8-2.4c0.4-0.5,0.8-1.1,1.3-1.6c0.2-0.3,0.4-0.5,0.6-0.8
			c0.1-0.2,0.3-0.4,0.4-0.5c0.4-0.5,0.8-0.9,1.2-1.5c2.4-2.8,4.9-5.5,7.6-8.1c0.4-0.4,0.7-0.7,1.1-1.1c0.3-0.3,0.5-0.5,0.8-0.7
			c0.2-0.2,0.4-0.4,0.6-0.5c0.3-0.3,0.5-0.5,0.8-0.7c0.1-0.1,0.1-0.1,0.2-0.2c0.3-0.3,0.7-0.6,1-0.9c0.4-0.3,0.8-0.7,1.1-1
			c0.4-0.4,0.9-0.8,1.4-1.2C149.1,91.5,178,81,207.7,81C228,81.2,248,86,266,95.4c2.6,1.3,3.6,4.5,2.3,7.1
			c-11,22.4-33.4,36.9-58.4,37.6c-0.4,0-0.8,0-1.2,0c-37.3-0.6-68.3,29.6-68.5,66.9c-0.2,17,6.1,33.4,17.6,46c0,0,0,0,0.1,0.1
			c0.4,0.4,0.7,0.8,1.1,1.1c0.7,0.8,1.5,1.5,2.2,2.2c0.4,0.4,0.8,0.7,1.1,1.1l0.1,0.1c27.6,25,70.2,23,95.3-4.6
			c11.3-12.4,17.5-28.6,17.5-45.3c0-0.8,0-1.5,0.1-2.2c0.8-24.9,15.3-47.4,37.7-58.4c2.6-1.3,5.8-0.3,7.1,2.3
			c23.2,44.7,17.6,98.9-14.1,137.9c-0.1,0.1-0.1,0.2-0.2,0.3c-0.8,0.9-1.6,1.9-2.3,2.8c-0.3,0.4-0.7,0.8-1,1.1
			c-0.3,0.3-0.6,0.7-0.9,1c-0.1,0.1-0.1,0.1-0.2,0.2c-0.3,0.3-0.5,0.5-0.7,0.8c-0.2,0.2-0.3,0.4-0.5,0.6c-0.1,0.2-0.3,0.4-0.5,0.5
			c-0.1,0.1-0.1,0.2-0.3,0.3c-0.3,0.4-0.7,0.8-1.1,1.1C295.6,298.6,292.9,301.1,290.1,303.5z"/>
	</g>
</g>
<g>
	<g>
		<g>
			<g>
				<path class="st4" d="M334.3,137.8v139.7c0,0.7-0.6,1.2-1.2,1.2h-38.5c-0.7,0-1.2-0.6-1.2-1.2c0-2.9-1.6-5.5-4.2-6.8
					c-2.6-1.3-5.6-1-7.9,0.7c-10.1,7.7-22.7,11.7-36.6,11.7c-14.6,0-27.3-4.6-36.8-13.3c-10.6-9.7-16.7-23.8-17.6-40.9
					c-0.1-1.5-0.1-3-0.1-4.4v-28.4c0-12.6-8.3-23.9-20.3-27.4c-3.4-1-7-1.5-10.9-1.5c-22.7,0-38.7,16.7-38.7,40.5
					s15.9,40.5,38.7,40.5c7.8,0,14.6-2,20.3-5.9c0.5-0.3,1-0.2,1.2-0.1c0.2,0.1,0.6,0.3,0.7,0.9c2.2,11.8,7,21.9,14.1,30
					c0.3,0.4,0.3,0.8,0.3,1c0,0.2-0.2,0.6-0.6,0.8c-10.8,5.4-23.2,8.3-36,8.3c-21.1,0-40.7-7.4-55-20.8
					c-14.7-13.9-22.9-33.3-22.9-54.7c0-21.3,8.1-40.7,22.9-54.6c14.4-13.5,33.9-20.9,55-20.9c9.3,0,18.3,1.5,26.9,4.5
					c19.1,6.7,33.9,20.2,41.7,38c3.3,8.8,3.3,15.5,3.2,20.9c0,0.7,0,1.3,0,1.9v16.8c0,19.1,11.8,32.5,28.6,32.5
					c12.7,0,33.9-5.8,33.9-44.6v-64.5c0-0.7,0.6-1.2,1.2-1.2h38.5C333.7,136.6,334.3,137.1,334.3,137.8z"/>
			</g>
		</g>
	</g>
</g>
<g class="st5">
	<g>
		<g>
			<g>
				<g>
					<g>
						<path class="st0" d="M334.3,137.8v139.7c0,0.7-0.6,1.2-1.2,1.2h-38.5c-0.7,0-1.2-0.6-1.2-1.2c0-2.9-1.6-5.5-4.2-6.8
							c-2.6-1.3-5.6-1-7.9,0.7c-10.1,7.7-22.7,11.7-36.6,11.7c-14.6,0-27.3-4.6-36.8-13.3c-10.6-9.7-16.7-23.8-17.6-40.9
							c-0.1-1.5-0.1-3-0.1-4.4v-28.4c0-12.6-8.3-23.9-20.3-27.4c-3.4-1-7-1.5-10.9-1.5c-22.7,0-38.7,16.7-38.7,40.5
							s15.9,40.5,38.7,40.5c7.8,0,14.6-2,20.3-5.9c0.5-0.3,1-0.2,1.2-0.1c0.2,0.1,0.6,0.3,0.7,0.9c2.2,11.8,7,21.9,14.1,30
							c0.3,0.4,0.3,0.8,0.3,1c0,0.2-0.2,0.6-0.6,0.8c-10.8,5.4-23.2,8.3-36,8.3c-21.1,0-40.7-7.4-55-20.8
							c-14.7-13.9-22.9-33.3-22.9-54.7c0-21.3,8.1-40.7,22.9-54.6c14.4-13.5,33.9-20.9,55-20.9c9.3,0,18.3,1.5,26.9,4.5
							c19.1,6.7,33.9,20.2,41.7,38c3.3,8.8,3.3,15.5,3.2,20.9c0,0.7,0,1.3,0,1.9v16.8c0,19.1,11.8,32.5,28.6,32.5
							c12.7,0,33.9-5.8,33.9-44.6v-64.5c0-0.7,0.6-1.2,1.2-1.2h38.5C333.7,136.6,334.3,137.1,334.3,137.8z"/>
					</g>
				</g>
			</g>
		</g>
	</g>
	<defs>
		<filter id="Adobe_OpacityMaskFilter" filterUnits="userSpaceOnUse" x="81.1" y="132.2" width="253.2" height="151.1">
			
				<feColorMatrix  type="matrix" values="-1 0 0 0 1  0 -1 0 0 1  0 0 -1 0 1  0 0 0 1 0" color-interpolation-filters="sRGB" result="source"/>
		</filter>
	</defs>
	<mask maskUnits="userSpaceOnUse" x="81.1" y="132.2" width="253.2" height="151.1" id="SVGID_2_">
		<g class="st6">
			
				<image style="overflow:visible;" width="258" height="156" xlink:href="98EBB1FE6C0B698B.jpg"  transform="matrix(1 0 0 1 78.6156 129.4)">
			</image>
		</g>
	</mask>
	<g class="st7">
		<g>
			<g>
				<g>
					<g>
						<path d="M334.3,137.8v139.7c0,0.7-0.6,1.2-1.2,1.2h-38.5c-0.7,0-1.2-0.6-1.2-1.2c0-2.9-1.6-5.5-4.2-6.8
							c-2.6-1.3-5.6-1-7.9,0.7c-10.1,7.7-22.7,11.7-36.6,11.7c-14.6,0-27.3-4.6-36.8-13.3c-10.6-9.7-16.7-23.8-17.6-40.9
							c-0.1-1.5-0.1-3-0.1-4.4v-28.4c0-12.6-8.3-23.9-20.3-27.4c-3.4-1-7-1.5-10.9-1.5c-22.7,0-38.7,16.7-38.7,40.5
							s15.9,40.5,38.7,40.5c7.8,0,14.6-2,20.3-5.9c0.5-0.3,1-0.2,1.2-0.1c0.2,0.1,0.6,0.3,0.7,0.9c2.2,11.8,7,21.9,14.1,30
							c0.3,0.4,0.3,0.8,0.3,1c0,0.2-0.2,0.6-0.6,0.8c-10.8,5.4-23.2,8.3-36,8.3c-21.1,0-40.7-7.4-55-20.8
							c-14.7-13.9-22.9-33.3-22.9-54.7c0-21.3,8.1-40.7,22.9-54.6c14.4-13.5,33.9-20.9,55-20.9c9.3,0,18.3,1.5,26.9,4.5
							c19.1,6.7,33.9,20.2,41.7,38c3.3,8.8,3.3,15.5,3.2,20.9c0,0.7,0,1.3,0,1.9v16.8c0,19.1,11.8,32.5,28.6,32.5
							c12.7,0,33.9-5.8,33.9-44.6v-64.5c0-0.7,0.6-1.2,1.2-1.2h38.5C333.7,136.6,334.3,137.1,334.3,137.8z"/>
					</g>
				</g>
			</g>
		</g>
	</g>
</g>
<g>
	<defs>
		<rect id="SVGID_3_" x="70.7" y="99.9" width="276.6" height="213.2"/>
	</defs>
	<clipPath id="SVGID_4_">
		<use xlink:href="#SVGID_3_"  style="overflow:visible;"/>
	</clipPath>
	<g class="st8">
		<g>
			<g>
				<g>
					<defs>
						<path id="SVGID_5_" d="M316.1,386H99.4c-38.7,0-70-31.3-70-70V99.4c0-38.7,31.3-70,70-70h216.7c38.7,0,70,31.3,70,70V316
							C386.1,354.7,354.7,386,316.1,386z"/>
					</defs>
					<clipPath id="SVGID_6_">
						<use xlink:href="#SVGID_5_"  style="overflow:visible;"/>
					</clipPath>
					<path class="st9" d="M236.2,38.6c0,0-280.8,81.3-17.6,585.2L357,437l-6.2-302.6L236.2,38.6z"/>
				</g>
			</g>
		</g>
		<g>
			<g>
				<g>
					<defs>
						<path id="SVGID_7_" d="M316.1,386H99.4c-38.7,0-70-31.3-70-70V99.4c0-38.7,31.3-70,70-70h216.7c38.7,0,70,31.3,70,70V316
							C386.1,354.7,354.7,386,316.1,386z"/>
					</defs>
					<clipPath id="SVGID_8_">
						<use xlink:href="#SVGID_7_"  style="overflow:visible;"/>
					</clipPath>
					<path class="st10" d="M239.5,34.9c0,0-153.6,144.1,35.2,454.6l150.8-83.8L369.4,83.4L239.5,34.9z"/>
				</g>
			</g>
		</g>
		<g>
			<g>
				<g>
					<defs>
						<path id="SVGID_9_" d="M316.1,386H99.4c-38.7,0-70-31.3-70-70V99.4c0-38.7,31.3-70,70-70h216.7c38.7,0,70,31.3,70,70V316
							C386.1,354.7,354.7,386,316.1,386z"/>
					</defs>
					<clipPath id="SVGID_10_">
						<use xlink:href="#SVGID_9_"  style="overflow:visible;"/>
					</clipPath>
					<path class="st11" d="M259.4,55.4c0,0-94.6,188.2,189.5,414.8l112.7-130.5L398.1,56.2L259.4,55.4z"/>
				</g>
			</g>
		</g>
	</g>
</g>
</svg>
