<?xml version="1.0" encoding="utf-8"?>
<!-- Generator: Adobe Illustrator 25.2.1, SVG Export Plug-In . SVG Version: 6.00 Build 0)  -->
<svg version="1.1" id="Calque_1" xmlns:svgjs="http://svgjs.com/svgjs"
	 xmlns="http://www.w3.org/2000/svg" xmlns:xlink="http://www.w3.org/1999/xlink" x="0px" y="0px" viewBox="0 0 523 607.2"
	 style="enable-background:new 0 0 523 607.2;" xml:space="preserve">
<style type="text/css">
	.st0{fill:#FFFFFF;}
</style>
<g>
	<path class="st0" d="M260.7,510.8H69.3c-8.7,0-15.8-7.1-15.8-15.8V112.4c0-8.7,7.1-15.8,15.8-15.8h191.4c14.8,0,26.8-12,26.8-26.8
		S275.5,43,260.7,43H69.3C31.1,43,0,74.1,0,112.3V495c0,38.2,31.1,69.3,69.3,69.3h191.3c14.8,0,26.8-12,26.8-26.8
		C287.4,522.8,275.4,510.8,260.7,510.8z"/>
	<path class="st0" d="M515.1,284.5L385.9,157c-5-5-11.7-7.8-18.8-7.8h-0.2c-7.2,0.1-13.9,2.9-19,8s-7.8,11.8-7.7,18.9
		c0.1,7.2,2.9,13.9,8,18.9l74.2,73.2c1.4,1.4,1.9,3.6,1.1,5.5s-2.6,3.1-4.6,3.1h-222c-14.8,0-26.8,12-26.8,26.8s12,26.8,26.8,26.8
		h222c2,0,3.9,1.2,4.6,3.1c0.8,1.9,0.3,4-1.1,5.5l-74.2,73.2c-5.1,4.9-7.9,11.6-8,18.7c-0.1,7.2,2.7,14,7.7,19.1
		c5.1,5.2,11.8,8,19,8c7,0,13.7-2.8,18.8-7.8L515,322.7l0,0c5.1-4.9,8-11.8,8-19C523,296.6,520.2,289.8,515.1,284.5z"/>
</g>
</svg>
