<?xml version="1.0" encoding="utf-8"?>
<!-- Generator: Adobe Illustrator 24.3.0, SVG Export Plug-In . SVG Version: 6.00 Build 0)  -->
<svg version="1.1" id="Capa_1" xmlns="http://www.w3.org/2000/svg" xmlns:xlink="http://www.w3.org/1999/xlink" x="0px" y="0px"
	 viewBox="0 0 522 400" style="enable-background:new 0 0 522 400;" xml:space="preserve">
<style type="text/css">
	.st0{fill:#FFFFFF;}
</style>
<path class="st0" d="M472,0H50C22.4,0,0,22.4,0,50v300c0,27.6,22.4,50,50,50h422c27.6,0,50-22.4,50-50V50C522,22.4,499.6,0,472,0z
	 M350.3,200L482,68.3v263.4L350.3,200z M200.8,227.5l47.1,46.7c7.8,7.7,20.5,7.7,28.2-0.1l45.9-45.9L453.7,360H68.3L200.8,227.5z
	 M68.5,40h385.2L261.9,231.8L68.5,40z M172.4,199.3L40,331.7V68.1L172.4,199.3z"/>
</svg>
