<?xml version="1.0" encoding="utf-8"?>
<!-- Generator: Adobe Illustrator 25.3.1, SVG Export Plug-In . SVG Version: 6.00 Build 0)  -->
<svg version="1.1" id="Capa_1" xmlns="http://www.w3.org/2000/svg" xmlns:xlink="http://www.w3.org/1999/xlink" x="0px" y="0px"
	 viewBox="0 0 509.2 577.2" style="enable-background:new 0 0 509.2 577.2;" xml:space="preserve">
<style type="text/css">
	.st0{fill:#FFFFFF;}
</style>
<g>
	<path class="st0" d="M432.3,296.1v-52.6c0-38.8-12.4-75.7-35.7-106.7c-21.5-28.5-51.5-50.2-85.1-61.6V56.9
		C311.5,25.5,286,0,254.6,0s-56.9,25.5-56.9,56.9v18.3c-33.6,11.4-63.6,33.1-85.1,61.6c-23.4,31-35.7,67.9-35.7,106.7v52.6
		c0,65.4-24.9,127.4-70.2,174.6c-6.7,6.9-8.5,17.1-4.7,26c3.8,8.8,12.4,14.6,22,14.6h144c10.7,38.5,46.1,65.9,86.6,65.9
		s75.9-27.4,86.6-65.9h144c9.6,0,18.3-5.7,22-14.6c3.8-8.8,1.9-19.1-4.7-26C457.2,423.5,432.3,361.5,432.3,296.1z M288.9,511.3
		c-7.7,11-20.5,17.9-34.4,17.9s-26.6-6.9-34.4-17.9L288.9,511.3L288.9,511.3z M435.1,463.4H74c33.3-49.4,50.8-107,50.8-167.2v-52.6
		c0-71.5,58.2-129.8,129.8-129.8S384.3,172,384.3,243.6v52.6C384.3,356.4,401.8,413.9,435.1,463.4z M263.5,66.1
		c-6-0.3-11.9-0.3-17.9,0v-9.2c0-4.9,4-9,9-9s9,4,9,9v9.2H263.5z"/>
	<path class="st0" d="M461.2,243.6c0,13.2,10.8,24,24,24s24-10.8,24-24c0-68-26.5-131.9-74.6-180c-4.5-4.5-10.5-7-16.9-7l0,0
		c-6.4,0-12.4,2.5-17,7c-9.3,9.3-9.3,24.6,0,33.9C439.7,136.5,461.2,188.4,461.2,243.6z"/>
	<path class="st0" d="M24,267.5c13.2,0,24-10.8,24-24c0-55.2,21.5-107.1,60.5-146.1c4.5-4.5,7-10.5,7-16.9s-2.5-12.4-7-16.9
		s-10.5-7-16.9-7s-12.4,2.5-16.9,7C26.5,111.7,0,175.6,0,243.6C0,256.8,10.8,267.5,24,267.5z"/>
</g>
</svg>
