<?xml version="1.0" encoding="utf-8"?>
<!-- Generator: Adobe Illustrator 24.3.0, SVG Export Plug-In . SVG Version: 6.00 Build 0)  -->
<svg version="1.1" id="Calque_1" xmlns="http://www.w3.org/2000/svg" xmlns:xlink="http://www.w3.org/1999/xlink" x="0px" y="0px"
	 viewBox="0 0 1214.3 1214.3" style="enable-background:new 0 0 1214.3 1214.3;" xml:space="preserve">
<style type="text/css">
	.st0{opacity:0.6;clip-path:url(#SVGID_2_);}
	.st1{fill:#929293;}
	.st2{fill:#DADDDF;}
	.st3{fill:#CFD2D4;}
	.st4{fill:#B6B8BA;}
</style>
<g>
	<g>
		<defs>
			<rect id="SVGID_1_" width="1214.3" height="1214.3"/>
		</defs>
		<clipPath id="SVGID_2_">
			<use xlink:href="#SVGID_1_"  style="overflow:visible;"/>
		</clipPath>
		<g id="surface1" class="st0">
			<path class="st1" d="M886.7,781.5l-118-118c-2.9-2.9-7.5-2.9-10.3,0l0,0c-8.6,8.6-22.4,8.6-31,0c-8.6-8.5-8.6-22.4,0-31l0,0
				c2.9-2.9,2.9-7.5,0-10.3l-20.7-20.7c-2.9-2.9-7.5-2.9-10.3,0l-92.9,92.9c-2.9,2.9-2.9,7.5,0,10.3l20.7,20.7
				c2.9,2.9,7.5,2.9,10.3,0l0,0c8.5-8.5,22.4-8.5,31,0c8.5,8.6,8.5,22.4,0,31l0,0c-2.9,2.9-2.9,7.5,0,10.3l118,118
				c2.2,2.2,4.6,4.3,7.1,6.2c2.9,2.2,7,1.9,9.5-0.7l92.1-92.1c2.6-2.6,2.9-6.7,0.7-9.5C891,786.1,888.9,783.8,886.7,781.5z"/>
			<path class="st2" d="M889.7,800.7l-87,87c-3.6,3.6-2.5,9.7,2,11.8c32.5,15,72,4.2,91.9-26.8c13.6-21.1,15.2-47.5,4.9-69.8
				C899.4,798.2,893.3,797.1,889.7,800.7z"/>
			<path class="st3" d="M432.6,387.9l-9.1-36.3c-0.5-1.9-1.7-3.6-3.5-4.6l-64.7-37c-2.9-1.6-6.5-1.2-8.8,1.2l-33.4,33.4
				c-2.3,2.3-2.8,5.9-1.2,8.8l37,64.7c1,1.7,2.6,3,4.6,3.5l36.3,9.1c1.3,0.3,2.5,1,3.4,1.9l230.9,230.9c2.9,2.9,7.5,2.9,10.3,0
				l31-31c2.9-2.9,2.9-7.5,0-10.3L434.5,391.3C433.6,390.3,432.9,389.2,432.6,387.9z"/>
			<path class="st2" d="M894.9,403.1L839,458.9c-2,2-4.8,2.6-7.5,1.8l-54.2-18.1c-2.2-0.7-3.9-2.4-4.6-4.6l-18.1-54.2
				c-0.9-2.6-0.2-5.5,1.8-7.5l55.9-55.9c4.3-4.3,1.8-11.6-4.2-12.4c-55.8-7.1-109.4,28.4-123.7,84.3c-4.4,17.1-4.7,34.9-0.9,52.1
				c0.5,2.4-0.2,4.9-2,6.7L453.1,679.6c-1.8,1.8-4.3,2.5-6.7,2c-59.9-13.1-119.8,23.6-135,83.5C295.9,826.3,332.8,888.4,394,904
				c61.2,15.5,123.3-21.5,138.8-82.6c4.4-17.2,4.7-35.1,0.9-52.4c-0.5-2.4,0.2-4.9,2-6.7l228.5-228.5c1.8-1.8,4.3-2.5,6.7-2
				c59.3,13,118.7-23.4,133.8-82.7c3.5-13.6,4.3-27.8,2.6-41.7C906.5,401.4,899.2,398.8,894.9,403.1z M449.6,844.2h-53.7
				c-2.6,0-4.9-1.3-6.3-3.5L363,796.3c-1.4-2.3-1.4-5.2,0-7.5l26.6-44.3c1.3-2.2,3.7-3.5,6.3-3.5h53.7c2.6,0,4.9,1.3,6.3,3.5
				l26.6,44.3c1.4,2.3,1.4,5.2,0,7.5l-26.6,44.3C454.5,842.9,452.2,844.2,449.6,844.2z"/>
			<path class="st4" d="M492.9,707.8L709.7,491c2.9-2.9,7.5-2.9,10.3,0l4.3,4.3c2.9,2.9,2.9,7.5,0,10.3L507.5,722.4
				c-2.9,2.9-7.5,2.9-10.3,0l-4.3-4.3C490,715.3,490,710.7,492.9,707.8z"/>
			<path class="st4" d="M720.1,722.4l4.3-4.3c2.9-2.9,7.5-2.9,10.3,0l92.9,92.9c2.9,2.9,2.9,7.5,0,10.3l-4.3,4.3
				c-2.9,2.9-7.5,2.9-10.3,0l-92.9-92.9C717.2,729.9,717.2,725.3,720.1,722.4z"/>
			<path class="st3" d="M908.1,833.2c0-10.5-2.3-20.9-6.6-30.3c-2.1-4.6-8.2-5.7-11.8-2.1L869,821.5c-1.4,1.4-2.1,3.2-2.1,5.2V886
				c0,5.9,6.8,9.5,11.6,5.9C896.8,878.3,908.1,856.6,908.1,833.2z"/>
		</g>
	</g>
</g>
</svg>
