<?xml version="1.0" encoding="utf-8"?>
<!-- Generator: Adobe Illustrator 25.3.1, SVG Export Plug-In . SVG Version: 6.00 Build 0)  -->
<svg version="1.1" id="Calque_1" xmlns="http://www.w3.org/2000/svg" xmlns:xlink="http://www.w3.org/1999/xlink" x="0px" y="0px"
	 viewBox="0 0 512 512" style="enable-background:new 0 0 512 512;" xml:space="preserve">
<style type="text/css">
	.st0{fill:#7000FF;}
</style>
<g>
	<g>
		<path class="st0" d="M500.2,323.3L467.9,298c-12.8-10-20-25.4-19.9-41.6c0-0.1,0-0.2,0-0.4c0-0.1,0-0.2,0-0.3
			c0-16.2,7.2-31.7,20-41.7l32.4-25.3c4.9-3.8,6.3-10.8,3.1-16.4l-51.2-88.7c-3.2-5.5-9.9-7.8-15.6-5.5l-38.2,15.4
			c-15.1,6.1-32.2,4.6-46.3-3.6c-0.2-0.1-0.5-0.3-0.7-0.4c-13.9-8.1-23.4-22-25.7-37.9L320,10.8c-1.2-6-6.4-10.8-12.8-10.8H204.7
			c-6.4,0-11.6,4.7-12.7,10.8l-5.8,40.8c-2.3,16-11.9,29.9-25.8,38c-0.2,0.1-0.4,0.3-0.6,0.4c-14.1,8.2-31.1,9.7-46.2,3.6L75.5,78.1
			c-5.8-2.2-12.4,0-15.6,5.5L8.6,172.3c-3.2,5.5-1.8,12.4,3.1,16.4L44,214c12.8,10,20,25.4,19.9,41.6c0,0.1,0,0.2,0,0.4
			c0,0.2,0,0.2,0,0.4C64,272.6,56.8,288,44,298l-32.3,25.3c-4.9,3.8-6.3,10.8-3.1,16.4l51.2,88.7c3.2,5.5,9.9,7.8,15.6,5.5
			l38.2-15.4c15.1-6.1,32.2-4.6,46.3,3.6c0.2,0.1,0.5,0.3,0.7,0.4c13.9,8.1,23.4,22,25.7,37.9l5.8,40.8c1,6,6.3,10.8,12.7,10.8
			h102.4c6.4,0,11.6-4.7,12.7-10.8l5.8-40.8c2.3-16,11.9-29.9,25.8-38c0.2-0.1,0.4-0.3,0.6-0.4c14.1-8.2,31.1-9.7,46.2-3.6
			l38.1,15.4c5.8,2.2,12.4,0,15.6-5.5l51.2-88.7C506.4,334.2,505,327.3,500.2,323.3z M255.9,345.6c-49.5,0-89.6-40.1-89.6-89.6
			s40.1-89.6,89.6-89.6s89.6,40.1,89.6,89.6S305.5,345.6,255.9,345.6z"/>
	</g>
</g>
</svg>
