<?xml version="1.0" encoding="utf-8"?>
<!-- Generator: Adobe Illustrator 25.2.1, SVG Export Plug-In . SVG Version: 6.00 Build 0)  -->
<svg version="1.1" id="Calque_1" xmlns="http://www.w3.org/2000/svg" xmlns:xlink="http://www.w3.org/1999/xlink" x="0px" y="0px"
	 viewBox="0 0 100 100" style="enable-background:new 0 0 100 100;" xml:space="preserve">
<style type="text/css">
	.st0{fill:#FAFAFA;}
	.st1{fill:#E0E0E0;}
</style>
<circle class="st0" cx="50" cy="50" r="50"/>
<path class="st1" d="M49.5,48.9c3.8,0,7.1-1.4,9.8-4.2s4-6.3,4-10.2c0-4-1.4-7.4-4-10.2c-2.7-2.8-6-4.2-9.8-4.2s-7.1,1.4-9.8,4.2
	s-4,6.3-4,10.2c0,4,1.4,7.4,4,10.2C42.5,47.5,45.7,48.9,49.5,48.9L49.5,48.9z"/>
<path class="st1" d="M73.7,66.2c-0.1-1.2-0.2-2.4-0.5-3.8c-0.2-1.4-0.5-2.6-0.9-3.8s-0.9-2.4-1.5-3.6c-0.6-1.2-1.4-2.2-2.3-3.1
	c-0.9-0.9-2-1.6-3.2-2.1C64,49.3,62.7,49,61.2,49c-0.6,0-1.2,0.3-2.2,1c-0.7,0.5-1.5,1-2.3,1.6c-0.8,0.5-1.8,1-3,1.4
	s-2.5,0.6-3.7,0.6s-2.5-0.2-3.7-0.6c-1.3-0.4-2.3-0.9-3-1.4C42.4,51,41.6,50.5,41,50c-1.1-0.7-1.7-1-2.2-1c-1.5,0-2.9,0.3-4.1,0.8
	c-1.3,0.5-2.3,1.2-3.2,2.1c-0.9,0.9-1.6,1.9-2.3,3.1c-0.6,1.1-1.1,2.3-1.5,3.6c-0.4,1.2-0.7,2.5-0.9,3.8c-0.2,1.3-0.4,2.6-0.5,3.8
	C26,67.4,26,68.6,26,69.8c0,3.1,1,5.7,2.8,7.5c1.9,1.8,4.3,2.8,7.3,2.8h27.6c3,0,5.4-0.9,7.3-2.8s2.8-4.4,2.8-7.6
	C73.8,68.6,73.7,67.4,73.7,66.2L73.7,66.2z"/>
<g>
	<path class="st1" d="M66.5,86.6c-7.6,0-13.7-6.2-13.7-13.7c0-7.6,6.2-13.7,13.7-13.7c7.6,0,13.7,6.2,13.7,13.7S74,86.6,66.5,86.6z
		 M60.4,72.8C60.3,72.8,60.3,72.9,60.4,72.8l4.6,0.1h1.5V79l0.1-4.6v-1.5h6.1l-4.6-0.1h-1.5v-6.1l-0.1,4.6v1.5H60.4z"/>
	<path class="st0" d="M66.5,60.6c6.7,0,12.2,5.5,12.2,12.2l0,0c0,6.7-5.5,12.2-12.2,12.2l0,0c-6.7,0-12.2-5.5-12.2-12.2
		S59.7,60.6,66.5,60.6 M60.4,74.4h4.5V79c0,0.8,0.7,1.5,1.5,1.5c0.8,0,1.5-0.7,1.5-1.5v-4.6h4.6c0.8,0,1.5-0.7,1.5-1.5
		s-0.7-1.5-1.5-1.5h-4.6v-4.6c0-0.8-0.7-1.5-1.5-1.5l0,0l0,0c-0.8,0-1.5,0.7-1.5,1.5v4.6h-4.6c-0.8,0-1.5,0.7-1.5,1.5
		C58.8,73.7,59.5,74.4,60.4,74.4 M66.5,57.6c-8.4,0-15.2,6.8-15.2,15.2S58.1,88,66.5,88s15.2-6.8,15.2-15.2
		C81.7,64.5,74.9,57.6,66.5,57.6L66.5,57.6z"/>
</g>
</svg>
