<svg width="100" height="100" viewBox="0 0 100 100" fill="none" xmlns="http://www.w3.org/2000/svg">
<circle cx="50" cy="50" r="50" fill="#FAFAFA"/>
<path d="M49.5306 48.9492C53.3209 48.9492 56.6029 47.5228 59.2846 44.7085C61.9662 41.8946 63.3256 38.4517 63.3256 34.4742C63.3256 30.498 61.9662 27.0546 59.2841 24.2398C56.602 21.4264 53.3204 20 49.5306 20C45.7399 20 42.4587 21.4264 39.7771 24.2403C37.0954 27.0541 35.7356 30.4975 35.7356 34.4742C35.7356 38.4517 37.0954 41.8951 39.7775 44.709C42.4596 47.5224 45.7412 48.9492 49.5306 48.9492V48.9492Z" fill="black" fill-opacity="0.1"/>
<path d="M73.6682 66.2121C73.5909 65.0411 73.4345 63.7637 73.2042 62.4147C72.9717 61.0557 72.6724 59.771 72.3141 58.5968C71.944 57.3831 71.4406 56.1845 70.8183 55.036C70.1725 53.8439 69.4139 52.8058 68.5627 51.9516C67.6726 51.058 66.5828 50.3395 65.3226 49.8154C64.0668 49.2941 62.675 49.03 61.1863 49.03C60.6016 49.03 60.0362 49.2817 58.9442 50.0277C58.2722 50.4876 57.4861 51.0195 56.6086 51.6077C55.8584 52.1093 54.842 52.5793 53.5866 53.0048C52.3618 53.4207 51.1181 53.6316 49.8907 53.6316C48.6633 53.6316 47.4201 53.4207 46.194 53.0048C44.9399 52.5798 43.9235 52.1098 43.1741 51.6082C42.305 51.0254 41.5184 50.4936 40.8363 50.0273C39.7457 49.2813 39.1798 49.0295 38.5951 49.0295C37.1059 49.0295 35.7146 49.2941 34.4592 49.8159C33.1999 50.339 32.1097 51.0575 31.2187 51.9521C30.3679 52.8067 29.6089 53.8443 28.9639 55.036C28.3421 56.1845 27.8387 57.3826 27.4682 58.5972C27.1103 59.7714 26.811 61.0557 26.5785 62.4147C26.3483 63.7618 26.1918 65.0397 26.1145 66.2135C26.0384 67.3634 26 68.5569 26 69.7623C26 72.8994 26.9504 75.4391 28.8245 77.3121C30.6755 79.1603 33.1247 80.098 36.1031 80.098H63.6809C66.6593 80.098 69.1076 79.1608 70.959 77.3121C72.8336 75.4405 73.784 72.9003 73.784 69.7619C73.7836 68.5509 73.7447 67.3565 73.6682 66.2121V66.2121Z" fill="black" fill-opacity="0.1"/>
</svg>
