<?xml version="1.0" encoding="utf-8"?>
<!-- Generator: Adobe Illustrator 24.3.0, SVG Export Plug-In . SVG Version: 6.00 Build 0)  -->
<svg version="1.1" id="Capa_1" xmlns="http://www.w3.org/2000/svg" xmlns:xlink="http://www.w3.org/1999/xlink" x="0px" y="0px"
	 viewBox="0 0 30.3 30.3" style="enable-background:new 0 0 30.3 30.3;" xml:space="preserve">
<style type="text/css">
	.st0{fill:#FFFFFF;}
	.st1{fill:#00FFBC;}
</style>
<circle class="st0" cx="15.1" cy="15.1" r="13.6"/>
<g>
	<path class="st1" d="M15.1,0C6.8,0,0,6.8,0,15.1c0,8.4,6.8,15.1,15.1,15.1s15.1-6.8,15.1-15.1C30.3,6.8,23.5,0,15.1,0z M12.9,24.1
		c-0.3,0.3-0.9,0.3-1.2,0l-0.3-0.3l0,0l-0.3-0.3l-1.3-1.3l0,0L4,16.4c-0.3-0.3-0.3-0.9,0-1.2l1.8-1.8C6.1,13,6.7,13,7,13.4l5.2,5.3
		l11-11c0.3-0.3,0.9-0.3,1.2,0l1.8,1.8c0.3,0.3,0.3,0.9,0,1.2L12.9,24.1z"/>
</g>
</svg>
