<?xml version="1.0" encoding="utf-8"?>
<!-- Generator: Adobe Illustrator 25.3.1, SVG Export Plug-In . SVG Version: 6.00 Build 0)  -->
<svg version="1.1" id="Calque_1" xmlns="http://www.w3.org/2000/svg" xmlns:xlink="http://www.w3.org/1999/xlink" x="0px" y="0px"
	 viewBox="0 0 512 471.8" style="enable-background:new 0 0 512 471.8;" xml:space="preserve">
<style type="text/css">
	.st0{fill:#2D2D2D;}
</style>
<g id="XMLID_830_">
	<g>
		<g>
			<path class="st0" d="M375.9,364L375.9,364c-24.5,0-44.5-20-44.5-44.5v-73.9c0-24.5,20-44.5,44.5-44.5h115.9c0.7,0,1.4,0,2.1,0.1
				v-73.6c0-18.9-15.4-34.3-34.3-34.3H34.3C15.4,93.2,0,108.6,0,127.5v310c0,18.9,15.4,34.3,34.3,34.3h425.4
				c18.9,0,34.3-15.4,34.3-34.3v-73.6c-0.7,0-1.4,0.1-2.1,0.1H375.9z"/>
			<path class="st0" d="M491.9,225.5h-116c-11.1,0-20.1,9-20.1,20.1v73.9c0,11.1,9,20.1,20.1,20.1h115.9c11.1,0,20.1-9,20.1-20.1
				v-73.9C512,234.5,503,225.5,491.9,225.5z M415.9,311.6c-16,0-29-13-29-29s13-29,29-29s29,13,29,29S431.9,311.6,415.9,311.6z"/>
			<path class="st0" d="M399.9,30.4c-7.7-23.2-32.7-35.8-56-28.2L169.7,59.8h240L399.9,30.4z"/>
		</g>
	</g>
</g>
</svg>
