<?xml version="1.0" encoding="utf-8"?>
<!-- Generator: Adobe Illustrator 24.3.0, SVG Export Plug-In . SVG Version: 6.00 Build 0)  -->
<svg version="1.1" id="Layer_1" xmlns="http://www.w3.org/2000/svg" xmlns:xlink="http://www.w3.org/1999/xlink" x="0px" y="0px"
	 viewBox="0 0 2547.2 760.1" style="enable-background:new 0 0 2547.2 760.1;" xml:space="preserve">
<style type="text/css">
	.st0{fill:#7000FF;}
</style>
<g>
	<g>
		<g>
			<g>
				<path class="st0" d="M690.1,184.5v380.8c0,1.8-1.5,3.3-3.3,3.3h-105c-1.8,0-3.3-1.5-3.3-3.3c0-7.9-4.4-15-11.5-18.5
					c-7-3.5-15.3-2.7-21.6,2c-27.4,20.9-61.9,31.9-99.8,31.9c-39.8,0-74.5-12.5-100.3-36.2c-28.8-26.4-45.4-64.9-47.9-111.5
					c-0.2-4-0.3-8.1-0.3-12.1v-77.3c0-34.4-22.7-65.1-55.2-74.6c-9.2-2.7-19.2-4.1-29.6-4.1c-62,0-105.4,45.4-105.4,110.3
					s43.3,110.3,105.4,110.3c21.2-0.1,39.9-5.4,55.4-16.1c1.4-0.9,2.6-0.6,3.3-0.3c0.6,0.2,1.6,0.9,1.9,2.4
					c6.1,32.1,19,59.7,38.3,81.8c0.9,1,0.9,2.2,0.7,2.7c-0.1,0.6-0.5,1.6-1.7,2.3c-29.4,14.8-63.3,22.6-98,22.6
					c-57.6,0-110.8-20.2-149.9-56.8C22.1,486.2,0,433.3,0,374.9C0,316.8,22.2,264,62.4,226.2c39.2-36.8,92.4-57.1,149.9-57.1
					c25.4,0,50,4.1,73.3,12.3c52,18.3,92.4,55.1,113.7,103.7c9.1,23.9,8.9,42.3,8.7,57.1c0,1.8,0,3.5,0,5.2v45.9
					c0,52.1,32.1,88.6,78,88.6c34.6,0,92.5-15.8,92.5-121.5V184.5c0-1.8,1.5-3.3,3.3-3.3h105C688.6,181.2,690.1,182.7,690.1,184.5z"
					/>
			</g>
		</g>
		<g>
			<path class="st0" d="M1586.8,409.6l-276.6-0.7c-2.8,0-4.8,2.6-4.1,5.3c11.1,42.9,41.5,69,81.3,69.1c27.7,0.1,59.8-6.4,80.6-41.6
				c0.9-1.6,2.7-2.4,4.5-2l100.7,20.8c2.6,0.5,4.1,3.4,3,5.9c-33.9,77.9-102.7,115.2-189,115c-111.1-0.3-202.8-82.5-202.5-204.3
				c0.3-121,92.4-203.6,204.3-203.3c108.9,0.3,196,78.7,198,204.3l-0.1,31.5L1586.8,409.6z M1313.1,333.7l146.9,0.4
				c2.9,0,5-2.8,4-5.6c-12.6-37.5-42-55.1-75.6-55.2c-32.7,0-66.2,19.3-79.4,54.7C1308.1,330.8,1310.2,333.7,1313.1,333.7z"/>
			<path class="st0" d="M1005.7,183.5l-5.3,116.1c-0.1,1.9-1.7,3.5-3.6,3.5h-18.7c-85.8-0.2-132.7,44.2-132.9,143.8l-0.3,116.6
				c0,2-1.6,3.6-3.6,3.6l-115.4-0.3c-2,0-3.6-1.6-3.6-3.6l0.9-377.4c0-2,1.6-3.6,3.6-3.6l115.3,0.3c2,0,3.6,1.6,3.6,3.6l-0.1,57.4
				c0,3.6,4.6,5,6.6,2c27.7-40.4,68.1-68.4,126.1-68.2c9.6,0.1,16.7,0.7,24.6,2.5C1004.6,180.2,1005.8,181.8,1005.7,183.5z"/>
			<path class="st0" d="M1164.9,69.9c-0.1,39-30.1,68.1-71.4,68s-70.4-29.3-70.3-68.4c0.1-37.5,29.3-69.6,70.6-69.5
				C1135.2,0.1,1165,32.3,1164.9,69.9z M1031.2,563.3l0.9-376.2c0-2.3,1.9-4.2,4.2-4.2l114.1,0.3c2.3,0,4.2,1.9,4.2,4.2l-0.9,376.2
				c0,2.3-1.9,4.2-4.2,4.2l-114.1-0.3C1033.1,567.5,1031.2,565.6,1031.2,563.3z"/>
			<path class="st0" d="M2007.2,285.4l-0.5,189.5c0,0.8-0.3,1.7-0.7,2.4l-54.6,80l-7.3,10.6c-0.8,1.2-2.1,1.8-3.5,1.8l-52.4-0.1
				c-2.3,0-4.2-1.9-4.2-4.2l0.1-22.4c0-3.7-4.4-5.6-7.1-3.1c-28.5,26.3-66.5,41.1-111,41c-89.6-0.2-149.2-64-149-160.5l0.6-231.7
				c0-2.3,1.9-4.2,4.2-4.2l113.3,0.3c2.3,0,4.2,1.9,4.2,4.2l-0.5,205.6c-0.1,45.2,26.7,76,65.7,76.1c48.3,0.1,79.8-32.7,80-107
				l0.4-174.3c0-2.3,1.9-4.2,4.2-4.2l53.2,0.1c1.4,0,2.8,0.7,3.6,2l6,9.5l54.7,86.5C2007,283.8,2007.2,284.6,2007.2,285.4z"/>
			<g>
				<path class="st0" d="M2280.5,382c-0.6,1.2-0.8,2.5-0.4,3.7c0.1,0.3,0.2,0.6,0.4,0.9c0.1,0.1,0.1,0.2,0.2,0.3l120.7,177.5
					c1.9,2.8-0.1,6.6-3.5,6.6l-130.6-0.3c-1.4,0-2.7-0.7-3.5-1.9l-68.5-104.1c-1.7-2.5-5.4-2.5-7.1,0l-69.7,103.8
					c-0.8,1.2-2.1,1.9-3.5,1.9l-130-0.3c-3.4,0-5.4-3.8-3.5-6.6l120.8-177c0.5-0.7,0.7-1.4,0.8-2.2c0-0.2,0-0.3,0-0.5
					c0-0.7-0.2-1.4-0.7-2.1L2014.2,242l-21-33.2l-11.2-17.7c-1.8-2.8,0.3-6.5,3.6-6.5l130.1,0.3c1.1,0,2.1,0.4,2.9,1.2
					c0.1,0.1,0.2,0.2,0.3,0.3s0.2,0.3,0.3,0.4l69.1,111.9c0.1,0.2,0.3,0.4,0.4,0.6c0.1,0.1,0.2,0.2,0.3,0.3c1.9,1.9,5.1,1.6,6.5-0.8
					l69-111.5c0.8-1.3,2.1-2,3.6-2l130.8,0.3c1.1,0,2,0.4,2.8,1c0.1,0.1,0.2,0.1,0.2,0.2c1.2,1.3,1.6,3.4,0.5,5.2L2280.5,382z"/>
				<path class="st0" d="M2102.4,381.6c0.4,0.7,0.6,1.4,0.7,2.1c-0.1-0.7-0.3-1.4-0.7-2l-109.2-172.9l21,33.2L2102.4,381.6z"/>
				<path class="st0" d="M2188.4,298.8c0.1,0.2,0.2,0.3,0.3,0.5C2188.6,299.1,2188.4,298.9,2188.4,298.8l-69.2-112
					c-0.1-0.1-0.2-0.3-0.3-0.4c0.2,0.2,0.3,0.3,0.4,0.5L2188.4,298.8z"/>
				<path class="st0" d="M2402.6,192.1l-122,190c-0.7,1.1-0.8,2.4-0.5,3.6c-0.4-1.2-0.2-2.5,0.4-3.7l122-190
					c1.1-1.7,0.7-3.8-0.5-5.2C2403.3,188.2,2403.8,190.3,2402.6,192.1z"/>
				<path class="st0" d="M2102.3,386.3c0.4-0.6,0.7-1.3,0.8-2.1c0,0.8-0.3,1.5-0.8,2.2V386.3z"/>
				<path class="st0" d="M2115.6,184.8c1.2,0,2.2,0.5,3,1.3c-0.8-0.7-1.8-1.2-2.9-1.2l-130.1-0.3c-3.3,0-5.4,3.7-3.6,6.5l11.2,17.7
					l-12.4-19.5c-1.3-2.1,0.2-4.8,2.6-4.8L2115.6,184.8z"/>
				<path class="st0" d="M2401.8,186.6c-0.7-0.6-1.7-1-2.8-1l-130.8-0.3c-1.5,0-2.8,0.7-3.6,2l-69,111.5c-1.4,2.4-4.7,2.7-6.5,0.8
					c1.9,1.7,5,1.4,6.4-0.9l69-111.5c0.8-1.3,2.1-2,3.6-2l130.8,0.3C2400,185.5,2401,185.9,2401.8,186.6z"/>
			</g>
			<path class="st0" d="M2546.9,506.4c-0.1,39-30.1,68.9-70.6,68.8c-40.6-0.1-69.6-30.1-69.5-69.1c0.1-36.8,29.3-68.9,69.9-68.8
				C2517.1,437.2,2547,469.5,2546.9,506.4z"/>
		</g>
	</g>
	<g>
		<path class="st0" d="M97.7,690.6c0,26.3-18.5,44-40.4,44c-10.8,0-19.3-3.4-25.8-9.1v6.6H5.1v-119h26.4v42.6c6.4-5.8,15-9,25.8-9
			C79.1,646.6,97.7,664.5,97.7,690.6z M71.7,690.6c0-12.7-8.4-21.4-20-21.4c-10.8,0-20.3,8.7-20.3,21.4c0,12.9,9.5,21.4,20.3,21.4
			C63.2,712,71.7,703.5,71.7,690.6z"/>
		<path class="st0" d="M184.1,697.4h-60.8c2.1,9.9,8.9,16,17.9,16c6.1,0,13.2-1.5,17.7-9.5l23.5,4.8c-7.1,17.5-22.1,25.9-41.1,25.9
			c-24,0-43.8-17.7-43.8-44c0-26.1,19.8-44,44-44c23.5,0,42.2,16.9,42.7,44L184.1,697.4L184.1,697.4z M123.8,681.1H158
			c-2.4-8.9-9-13-16.7-13C133.9,668.1,126.3,672.7,123.8,681.1z"/>
		<path class="st0" d="M247.2,696.9l24.3,5.3c-4.2,19.7-21.6,32.4-42.2,32.4c-24.8,0-45.3-17.7-45.3-44c0-26.1,20.5-44,45.3-44
			c20.1,0,37.7,12.4,42.2,31.9l-24.8,6c-2.3-10.1-9-14.7-17.5-14.7c-11.9,0-19.8,8.7-19.8,20.8c0,12.2,7.9,20.8,19.8,20.8
			C237.6,711.4,244.4,706.9,247.2,696.9z"/>
		<path class="st0" d="M363.9,732h-26.4v-6.6c-6.4,5.8-15,9.1-25.8,9.1c-21.9,0-40.4-17.7-40.4-44c0-26.1,18.5-44,40.4-44
			c10.8,0,19.3,3.4,25.8,9V649h26.4V732z M337.5,690.6c0-12.7-9.5-21.4-20.3-21.4c-11.6,0-20,8.7-20,21.4c0,12.9,8.4,21.4,20,21.4
			C327.9,712,337.5,703.5,337.5,690.6z"/>
		<path class="st0" d="M457.5,732h-26.4v-7.9c-6.3,6.6-15,10.4-25.4,10.4c-19.3,0-32.2-13.7-32.2-34.5v-51h26.3v45.3
			c0,9.7,5.8,16.3,14.2,16.3c10.4,0,17.2-7.1,17.2-23.1V649h26.4L457.5,732L457.5,732z"/>
		<path class="st0" d="M487.8,705.1c1.1,7.1,7.6,9.7,14.7,9.7c6.9,0,10.8-2.9,10.8-6.6c0-2.8-2.1-5-8.2-6.1l-16.9-3.4
			c-15.3-2.8-24.1-11.1-24.1-24.1c0-17.1,14.7-28,35.6-28c20.6,0,34.3,9.4,37.7,23.8l-24.1,4.8c-0.8-5.1-5.8-9.7-13.9-9.7
			c-7.1,0-9.4,3.5-9.4,6.4c0,2.3,1,4.7,6.3,5.8l19.5,4c15.7,3.2,22.9,12.7,22.9,25c0,18.3-15.8,27.9-37.7,27.9
			c-19.5,0-36.1-7.1-39-24.1L487.8,705.1z"/>
		<path class="st0" d="M625,697.4h-60.8c2.1,9.9,8.9,16,17.9,16c6.1,0,13.2-1.5,17.7-9.5l23.5,4.8c-7.1,17.5-22.1,25.9-41.1,25.9
			c-24,0-43.8-17.7-43.8-44c0-26.1,19.8-44,44-44c23.5,0,42.2,16.9,42.7,44L625,697.4L625,697.4z M564.8,681.1H599
			c-2.4-8.9-9-13-16.7-13C574.8,668.1,567.2,672.7,564.8,681.1z"/>
		<path class="st0" d="M754.1,732.2h-22.9l-14.8-44.9l-15,44.9h-22.9l-26.6-83h25.9l13.5,44.6l15.6-44.6h18.7l15.6,44.8l13.5-44.8
			h25.9L754.1,732.2z"/>
		<path class="st0" d="M862.4,697.4h-60.8c2.1,9.9,8.9,16,17.9,16c6.1,0,13.2-1.5,17.7-9.5l23.5,4.8c-7.1,17.5-22.1,25.9-41.1,25.9
			c-24,0-43.8-17.7-43.8-44c0-26.1,19.8-44,44-44c23.5,0,42.2,16.9,42.7,44L862.4,697.4L862.4,697.4z M802.1,681.1h34.2
			c-2.4-8.9-9-13-16.7-13C812.2,668.1,804.6,672.7,802.1,681.1z"/>
		<path class="st0" d="M955.4,696.9l24.3,5.3c-4.2,19.7-21.6,32.4-42.2,32.4c-24.8,0-45.3-17.7-45.3-44c0-26.1,20.5-44,45.3-44
			c20.1,0,37.7,12.4,42.2,31.9l-24.8,6c-2.3-10.1-9-14.7-17.5-14.7c-11.9,0-19.8,8.7-19.8,20.8c0,12.2,7.9,20.8,19.8,20.8
			C945.7,711.4,952.5,706.9,955.4,696.9z"/>
		<path class="st0" d="M1072,732h-26.4v-6.6c-6.4,5.8-15,9.1-25.8,9.1c-21.9,0-40.4-17.7-40.4-44c0-26.1,18.5-44,40.4-44
			c10.8,0,19.3,3.4,25.8,9V649h26.4V732z M1045.6,690.6c0-12.7-9.5-21.4-20.3-21.4c-11.6,0-20,8.7-20,21.4c0,12.9,8.4,21.4,20,21.4
			C1036.1,712,1045.6,703.5,1045.6,690.6z"/>
		<path class="st0" d="M1143.7,648.6l-1.1,26.4h-4.8c-18.5,0-28.5,9.5-28.5,31.1V732h-26.4v-82.8h26.4V665c6-9.9,15-17.1,28.5-17.1
			C1140,647.9,1141.7,648.1,1143.7,648.6z"/>
		<path class="st0" d="M1227.1,697.4h-60.8c2.1,9.9,8.9,16,17.9,16c6.1,0,13.2-1.5,17.7-9.5l23.5,4.8c-7.1,17.5-22.1,25.9-41.1,25.9
			c-24,0-43.8-17.7-43.8-44c0-26.1,19.8-44,44-44c23.5,0,42.2,16.9,42.7,44L1227.1,697.4L1227.1,697.4z M1166.9,681.1h34.2
			c-2.4-8.9-9-13-16.7-13C1177,668.1,1169.4,672.7,1166.9,681.1z"/>
		<path class="st0" d="M1349.5,732h-26.4v-6.6c-6.4,5.8-15,9.1-25.8,9.1c-21.9,0-40.4-17.7-40.4-44c0-26.1,18.5-44,40.4-44
			c10.8,0,19.3,3.4,25.8,9V649h26.4V732z M1323.1,690.6c0-12.7-9.5-21.4-20.3-21.4c-11.6,0-20,8.7-20,21.4c0,12.9,8.4,21.4,20,21.4
			C1313.5,712,1323.1,703.5,1323.1,690.6z"/>
		<path class="st0" d="M1452.8,690.6c0,26.3-18.5,44-40.4,44c-10.8,0-19.3-3.4-25.8-9.1v6.6h-26.4v-119h26.4v42.6
			c6.4-5.8,15-9,25.8-9C1434.4,646.6,1452.8,664.5,1452.8,690.6z M1426.9,690.6c0-12.7-8.4-21.4-20-21.4c-10.8,0-20.3,8.7-20.3,21.4
			c0,12.9,9.5,21.4,20.3,21.4C1418.5,712,1426.9,703.5,1426.9,690.6z"/>
		<path class="st0" d="M1543.9,690.6c0,26.3-20.8,43.8-45.4,43.8c-25.1,0-45.9-17.5-45.9-43.8c0-26.1,20.8-43.6,45.9-43.6
			C1523.2,647,1543.9,664.5,1543.9,690.6z M1518.5,690.6c0-12.9-9.7-21.4-20-21.4c-10.8,0-20.5,8.6-20.5,21.4
			c0,13.1,9.7,21.4,20.5,21.4C1508.8,712,1518.5,703.6,1518.5,690.6z"/>
		<path class="st0" d="M1632.1,732h-26.4v-7.9c-6.3,6.6-15,10.4-25.4,10.4c-19.3,0-32.2-13.7-32.2-34.5v-51h26.3v45.3
			c0,9.7,5.8,16.3,14.2,16.3c10.4,0,17.2-7.1,17.2-23.1V649h26.4L1632.1,732L1632.1,732z"/>
		<path class="st0" d="M1704.2,728.3c-6.4,3.5-13.2,6.1-22.6,6.1c-20.6,0-33-11.3-33-33V670h-15v-21h15v-24.5h26.4V649h24.5v21H1675
			v28.7c0,8.6,4.2,12.1,11.1,12.1c3.7,0,8.6-1.3,12.1-3.4L1704.2,728.3z"/>
		<path class="st0" d="M1776.8,760.1h-28.5l13.4-30.9l-34.3-80.2h28.4l19.7,48.4l21-48.4h28.4L1776.8,760.1z"/>
		<path class="st0" d="M1909.9,690.6c0,26.3-20.8,43.8-45.4,43.8c-25.1,0-45.9-17.5-45.9-43.8c0-26.1,20.8-43.6,45.9-43.6
			C1889.1,647,1909.9,664.5,1909.9,690.6z M1884.5,690.6c0-12.9-9.7-21.4-20-21.4c-10.8,0-20.5,8.6-20.5,21.4
			c0,13.1,9.7,21.4,20.5,21.4C1874.8,712,1884.5,703.6,1884.5,690.6z"/>
		<path class="st0" d="M1998,732h-26.4v-7.9c-6.3,6.6-15,10.4-25.4,10.4c-19.3,0-32.2-13.7-32.2-34.5v-51h26.3v45.3
			c0,9.7,5.8,16.3,14.2,16.3c10.4,0,17.2-7.1,17.2-23.1V649h26.4L1998,732L1998,732z"/>
		<path class="st0" d="M2069.7,648.6l-1.1,26.4h-4.8c-18.5,0-28.5,9.5-28.5,31.1V732h-26.4v-82.8h26.4V665c6-9.9,15-17.1,28.5-17.1
			C2066.1,647.9,2067.7,648.1,2069.7,648.6z"/>
		<path class="st0" d="M2241.4,680.1V732h-26.3v-46.2c0-9.4-6.1-15.3-13.9-15.3c-9.7,0-16.1,7.1-16.1,20.9V732h-26.4v-46.2
			c0-9.4-6.1-15.3-14-15.3c-9.5,0-15.8,7.1-15.8,20.9V732h-26.4v-82.8h26.4v7.6c5.6-6.3,13.7-10.1,24.5-10.1c11.6,0,21.4,5,27.1,14
			c6.6-8.6,16.5-14,29.4-14C2227.4,646.6,2241.4,660,2241.4,680.1z"/>
		<path class="st0" d="M2333.2,732h-26.4v-7.9c-6.3,6.6-15,10.4-25.4,10.4c-19.3,0-32.2-13.7-32.2-34.5v-51h26.3v45.3
			c0,9.7,5.8,16.3,14.2,16.3c10.4,0,17.2-7.1,17.2-23.1V649h26.4L2333.2,732L2333.2,732z"/>
		<path class="st0" d="M2363.5,705.1c1.1,7.1,7.6,9.7,14.7,9.7c6.9,0,10.8-2.9,10.8-6.6c0-2.8-2.1-5-8.2-6.1l-16.9-3.4
			c-15.3-2.8-24.1-11.1-24.1-24.1c0-17.1,14.7-28,35.6-28c20.6,0,34.3,9.4,37.7,23.8l-24.1,4.8c-0.8-5.1-5.8-9.7-13.9-9.7
			c-7.1,0-9.4,3.5-9.4,6.4c0,2.3,1,4.7,6.3,5.8l19.5,4c15.6,3.2,22.9,12.7,22.9,25c0,18.3-15.8,27.9-37.7,27.9
			c-19.5,0-36.1-7.1-39-24.1L2363.5,705.1z"/>
		<path class="st0" d="M2449.8,624.7c0,8.4-6.5,14.7-15.3,14.7c-8.9,0-15.2-6.3-15.2-14.7c0-8.1,6.3-15,15.2-15
			C2443.4,609.6,2449.8,616.5,2449.8,624.7z M2421.3,732v-82.8h26.4V732H2421.3z"/>
		<path class="st0" d="M2517.5,696.9l24.3,5.3c-4.2,19.7-21.6,32.4-42.2,32.4c-24.8,0-45.3-17.7-45.3-44c0-26.1,20.5-44,45.3-44
			c20.1,0,37.7,12.4,42.2,31.9l-24.8,6c-2.3-10.1-9-14.7-17.5-14.7c-11.9,0-19.8,8.7-19.8,20.8c0,12.2,7.9,20.8,19.8,20.8
			C2507.9,711.4,2514.7,706.9,2517.5,696.9z"/>
	</g>
</g>
</svg>
