<?xml version="1.0" encoding="utf-8"?>
<!-- Generator: Adobe Illustrator 25.3.1, SVG Export Plug-In . SVG Version: 6.00 Build 0)  -->
<svg version="1.1" id="Layer_1" xmlns="http://www.w3.org/2000/svg" xmlns:xlink="http://www.w3.org/1999/xlink" x="0px" y="0px"
	 viewBox="0 0 690.1 411.8" style="enable-background:new 0 0 690.1 411.8;" xml:space="preserve">
<style type="text/css">
	.st0{fill:#FFFFFF;}
</style>
<g>
	<g>
		<g>
			<g>
				<path class="st0" d="M690.1,15.4v380.8c0,1.8-1.5,3.3-3.3,3.3h-105c-1.8,0-3.3-1.5-3.3-3.3c0-7.9-4.4-15-11.5-18.5
					c-7-3.5-15.3-2.7-21.6,2c-27.4,20.9-61.9,31.9-99.8,31.9c-39.8,0-74.5-12.5-100.3-36.2c-28.8-26.4-45.4-64.9-47.9-111.5
					c-0.2-4-0.3-8.1-0.3-12.1v-77.3c0-34.4-22.7-65.1-55.2-74.6c-9.2-2.7-19.2-4.1-29.6-4.1c-62,0-105.4,45.4-105.4,110.3
					s43.3,110.3,105.4,110.3c21.2-0.1,39.9-5.4,55.4-16.1c1.4-0.9,2.6-0.6,3.3-0.3c0.6,0.2,1.6,0.9,1.9,2.4
					c6.1,32.1,19,59.7,38.3,81.8c0.9,1,0.9,2.2,0.7,2.7c-0.1,0.6-0.5,1.6-1.7,2.3c-29.4,14.8-63.3,22.6-98,22.6
					c-57.6,0-110.8-20.2-149.9-56.8C22.1,317.1,0,264.2,0,205.8C0,147.7,22.2,94.9,62.4,57.1C101.6,20.3,154.8,0,212.3,0
					c25.4,0,50,4.1,73.3,12.3c52,18.3,92.4,55.1,113.7,103.7c9.1,23.9,8.9,42.3,8.7,57.1c0,1.8,0,3.5,0,5.2v45.9
					c0,52.1,32.1,88.6,78,88.6c34.6,0,92.5-15.8,92.5-121.5V15.4c0-1.8,1.5-3.3,3.3-3.3h105C688.6,12.1,690.1,13.6,690.1,15.4z"/>
			</g>
		</g>
	</g>
</g>
</svg>
