<?xml version="1.0" encoding="utf-8"?>
<!-- Generator: Adobe Illustrator 25.2.1, SVG Export Plug-In . SVG Version: 6.00 Build 0)  -->
<svg version="1.1" id="Calque_1" xmlns="http://www.w3.org/2000/svg" xmlns:xlink="http://www.w3.org/1999/xlink" x="0px" y="0px"
	 viewBox="0 0 472.1 593.4" style="enable-background:new 0 0 472.1 593.4;" xml:space="preserve">
<style type="text/css">
	.st0{fill:#FFFFFF;}
</style>
<g>
	<path class="st0" d="M394.4,315.1c-0.8-48.4,20.1-86,62.6-113c-24-34.9-59.4-54.5-106.1-58.9c-16.6-1.6-37.9,2.4-63.8,11.9
		c-27.8,10.3-43.5,15.4-47,15.4c-7.3,0-21.5-4.3-42.4-13.1c-20.9-8.7-38.7-13.1-53.4-13.1c-24.7,0.4-47.8,7.2-69,20.5
		c-21.3,13.3-38.3,31.4-51,54.4C8.1,247.9,0,282,0,321.7c0,35.7,6,71.3,18,107c11.2,34.1,25.5,64,42.9,89.8
		c15.4,23.4,29,40.4,40.6,51.2c16.6,16.6,33.6,24.6,51.1,23.8c11.2-0.4,25.9-4.6,44.1-12.5c17-7.5,34-11.3,51-11.3
		c15.8,0,32.3,3.8,49.3,11.3c18.9,7.9,34.4,11.9,46.4,11.9c17.8-0.8,34.4-8.5,49.9-23.2c5.4-4.8,11.3-11.3,17.7-19.6
		c7.4-9.7,14.4-19.6,21.2-29.7c5.6-8.7,11-17.6,16-26.8c5.4-9.8,10.1-19.9,14.2-30.3c1.9-4.4,3.7-8.8,5.2-13.4
		c1.5-4.6,3.1-9.2,4.6-14c-14.3-6.3-27.3-15.3-38.9-26.8C407.7,383.7,394.8,352.4,394.4,315.1L394.4,315.1z M321.3,95.1
		c20.5-25.8,30.8-53.5,30.8-83.2V6c0-2-0.2-4-0.6-6c-14.3,0.8-29.5,5.4-45.5,13.7c-16,8.3-29.3,18.9-39.7,31.5
		c-20.9,25-31.3,51.7-31.3,80.3v5.6c0,1.8,0.2,3.7,0.6,5.7C267.6,139.9,296.2,126,321.3,95.1L321.3,95.1z"/>
</g>
</svg>
