<?xml version="1.0" encoding="utf-8"?>
<!-- Generator: Adobe Illustrator 25.2.1, SVG Export Plug-In . SVG Version: 6.00 Build 0)  -->
<svg version="1.1" id="Calque_1" xmlns="http://www.w3.org/2000/svg" xmlns:xlink="http://www.w3.org/1999/xlink" x="0px" y="0px"
	 viewBox="0 0 665.3 443.7" style="enable-background:new 0 0 665.3 443.7;" xml:space="preserve">
<style type="text/css">
	.st0{fill:#FFFFFF;stroke:#FFFFFF;stroke-width:0.1617;stroke-miterlimit:6.8798;}
</style>
<g>
	<path class="st0" d="M110.2,0.1h1.4c10.5,12,22.4,22.7,33.5,34.2l76,76v1.4c-36.8,36.6-73.4,73.6-110.2,110.2
		c-37-36.8-73.8-73.8-110.8-110.6c1.9-3.6,5.5-6,8.3-8.9C42.2,68.2,76.6,34.5,110.2,0.1z M332,0.1h1.4c1,1.5,2.1,2.9,3.4,4.3
		c35.6,35.3,70.7,71,106.6,106.1c-0.9,2.1-2.8,3.4-4.3,5c-35.6,35.4-71,71-106.6,106.5c-37.2-36.6-73.6-74-110.9-110.4
		C257.7,73.9,295.8,37.6,332,0.1z M553.9,0.1h1.4c6.9,8.3,15,15.3,22.4,23c27.9,27.9,55.6,55.6,83.4,83.4c1.4,1.5,3.6,2.9,4.1,5.2
		c-37.3,36.3-73.4,74-110.9,110.2L448.5,116.2c-1.7-1.9-4-3.3-4.8-5.7c18.7-18.2,37-37,55.6-55.4C517.5,36.7,536,18.8,553.9,0.1z
		 M223.2,331.2c36.3-36.3,72.8-72.6,109-109l1.5,0.7c36.5,36.6,72.9,73.3,109.7,109.6c-1.2,2.8-3.8,4.3-5.7,6.5
		c-26.5,26.3-53,53-79.5,79.3c-8.6,8.3-16.9,17.5-25.6,25.3c-12.6-11.4-24.1-24.1-36.3-35.8c-24.8-24.8-49.4-49.5-74.3-74.1
		C222.5,332.9,222.8,331.9,223.2,331.2L223.2,331.2z"/>
</g>
</svg>
