<?xml version="1.0" encoding="utf-8"?>
<!-- Generator: Adobe Illustrator 25.2.1, SVG Export Plug-In . SVG Version: 6.00 Build 0)  -->
<svg version="1.1" id="Calque_1" xmlns="http://www.w3.org/2000/svg" xmlns:xlink="http://www.w3.org/1999/xlink" x="0px" y="0px"
	 viewBox="0 0 797.3 558.1" style="enable-background:new 0 0 797.3 558.1;" xml:space="preserve">
<style type="text/css">
	.st0{fill-rule:evenodd;clip-rule:evenodd;fill:#FF0000;}
	.st1{fill-rule:evenodd;clip-rule:evenodd;fill:#FFFFFF;}
</style>
<g>
	<path class="st0" d="M780.7,87.1c-9.1-34.2-36.1-61.3-70.5-70.5C648,0,398.7,0,398.7,0S149.4,0,87.1,16.6
		c-34.2,9.1-61.3,36.1-70.5,70.5C0,149.3,0,279,0,279S0,408.8,16.6,471c9.1,34.2,36.1,61.3,70.5,70.5
		c62.3,16.6,311.5,16.6,311.5,16.6s249.4,0,311.5-16.6c34.2-9.1,61.3-36.1,70.5-70.5c16.6-62.2,16.6-191.9,16.6-191.9
		S797.3,149.3,780.7,87.1L780.7,87.1z"/>
	<path class="st1" d="M319,398.7L526.1,279L319,159.4V398.7z"/>
</g>
</svg>
